<?xml version="1.0" encoding="utf-8"?>
<!-- Generator: Adobe Illustrator 26.2.1, SVG Export Plug-In . SVG Version: 6.00 Build 0)  -->
<svg version="1.1" id="Livello_3_copia" xmlns="http://www.w3.org/2000/svg" xmlns:xlink="http://www.w3.org/1999/xlink" x="0px"
	 y="0px" viewBox="0 0 200 88" style="enable-background:new 0 0 200 88;" xml:space="preserve">
<style type="text/css">
	.st0{fill:#FFFFFF;}
	.st1{fill:#FFD100;}
	.st2{fill:#E21F21;}
</style>
<g id="fronte_00000085212791563431103530000012389726286011988367_">
	<g>
		<g>
			<path class="st0" d="M95.6,37.3v-2.3h21.1v2.3h-8.3v15.9H104V37.3H95.6z"/>
			<path class="st1" d="M52.6,30.7c0,0-12.1-16.7-8.7-19.4c3.4-2.7,11.7,0.6,22.6,6.3c11,5.7,69.1,43.6,60,57.5
				c-3.2,4.8-41-17.1-41-17.1s20.4,15.4,35.8,23.3c13.2,6.4,17.5,5.6,19.9,3c2.4-2.5,0.8-11.2-18.3-29.9
				c-19.2-18.6-74.4-59.9-85-51.6C31.3,8.2,52.6,30.7,52.6,30.7z"/>
			<path class="st0" d="M118,44.3c0-2.4,1.2-4.3,3.5-5.8c1.8-1.2,4.3-2.1,7.4-2.7c2.3-0.5,4.6-0.7,6.7-0.7h3.4v2.3h-3.6
				c-3.7,0-6.7,0.6-9.1,1.8c-2.1,1-3.3,2.2-3.6,3.5h16.3V45h-16.3c0,1.4,1,2.7,2.9,3.9c2.2,1.4,5.1,2.1,8.6,2.1h4.8v2.3h-4
				c-4.3,0-8.1-0.8-11.5-2.3C119.9,49.2,118,46.9,118,44.3z"/>
			<path class="st0" d="M1,53.3V41.9c0-2.3,0.9-4.1,2.7-5.3c1.8-1.2,4.6-1.8,8.4-1.8c2.9,0,5.3,0.5,7.2,1.4c2.1,1,3.1,2.3,3.1,3.8
				c0,0.8-0.3,1.6-1,2.3c-0.7,0.7-1.6,1.3-2.9,1.6c2.9,0.6,4.4,1.8,4.4,3.6v5.6h-4.5l0-5.1c-0.3-1.8-2.3-2.7-6.1-2.7H7.5v-2.3h4
				c1.6,0,3-0.2,4.2-0.7c1.5-0.6,2.2-1.4,2.2-2.4c0-0.9-0.6-1.7-1.9-2.2c-1.1-0.5-2.4-0.7-3.9-0.7c-2.1,0-3.8,0.4-4.9,1.1
				c-1.1,0.7-1.6,1.5-1.6,2.4v12.7H1z"/>
			<path class="st0" d="M26.6,44.3c0-2.4,1.2-4.3,3.5-5.8c1.8-1.2,4.3-2.1,7.4-2.7c2.3-0.5,4.6-0.7,6.7-0.7h3.4v2.3h-3.6
				c-3.7,0-6.7,0.6-9.1,1.8c-2.1,1-3.3,2.2-3.6,3.5h16.3V45H31.4c0,1.4,1,2.7,2.9,3.9c2.2,1.4,5.1,2.1,8.6,2.1h4.8v2.3h-4
				c-4.3,0-8.1-0.8-11.5-2.3C28.5,49.2,26.6,46.9,26.6,44.3z"/>
			<path class="st0" d="M52.8,35.1h4.4v11.8c0,1.3,0.5,2.3,1.5,3c1.1,0.7,2.9,1.1,5.5,1.1h4.3v2.3H63c-2.3,0-4.5-0.4-6.4-1.1
				c-2.5-1-3.8-2.4-3.8-4.2V35.1z"/>
			<path class="st0" d="M70.5,53.2l0.1-12c0-1.9,1.1-3.4,3.2-4.6c2.1-1.2,4.8-1.8,8-1.8c3.5,0,6.3,0.6,8.4,1.8
				c2.1,1.2,3.2,2.9,3.2,5.2v11.5h-4.5V45h-12v-2.3h12c0-3.8-2.3-5.7-6.8-5.7c-2.5,0-4.3,0.5-5.6,1.5c-0.9,0.8-1.4,1.6-1.4,2.6v12.1
				H70.5z"/>
			<path class="st0" d="M142.8,44.1c0-2.6,1.9-4.8,5.7-6.6c3.4-1.6,7.2-2.4,11.2-2.4h4.3v2.3h-3.6c-4.2,0-7.4,0.7-9.7,2.2
				c-2,1.3-3.1,2.8-3.1,4.7c0,1.6,0.7,3,2.2,4.1c2.2,1.7,5.6,2.6,10.4,2.6h3.7v2.3h-4.5c-4.9,0-8.9-0.9-12-2.6
				C144.4,48.9,142.8,46.7,142.8,44.1z"/>
			<path class="st0" d="M168.3,53.2V35h4.5v7.6h14.5V35h4.6v18.2h-4.6v-8.3h-14.5v8.3H168.3z"/>
			<path class="st2" d="M164.1,44.4c0,2.2-1.8,4.1-4.1,4.1c-2.2,0-4.1-1.8-4.1-4.1c0-2.2,1.8-4.1,4.1-4.1
				C162.3,40.4,164.1,42.2,164.1,44.4z"/>
			<path class="st0" d="M104,37.3h-8.3v-2.3h21.1v2.3h-8.3"/>
		</g>
		<g>
			<path class="st0" d="M196.8,35c1.2,0,2.2,0.9,2.2,2.2c0,1.3-1,2.2-2.2,2.2c-1.2,0-2.2-0.9-2.2-2.2C194.6,35.9,195.6,35,196.8,35z
				 M196.8,39c1,0,1.8-0.8,1.8-1.9c0-1.1-0.8-1.9-1.8-1.9c-1,0-1.8,0.8-1.8,1.9C195,38.2,195.8,39,196.8,39z M195.9,35.9h1
				c0.6,0,0.9,0.2,0.9,0.7c0,0.5-0.3,0.7-0.7,0.7l0.7,1.1h-0.4l-0.7-1.1h-0.4v1.1h-0.4V35.9z M196.3,37h0.4c0.4,0,0.7,0,0.7-0.4
				c0-0.3-0.3-0.4-0.6-0.4h-0.5V37z"/>
		</g>
	</g>
	<g>
		<g>
			<path class="st2" d="M60,63.4c0.1,0.9,1.2,1.1,1.7,1.1c0.9,0,1.7-0.4,1.7-1c0-0.7-0.9-0.8-2.2-1.1c-0.8-0.2-2.5-0.5-2.5-1.6
				c0-1.1,1.6-1.7,3.1-1.7c1.3,0,2.9,0.4,3,1.7h-1.6c-0.1-0.3-0.4-0.8-1.5-0.8c-0.8,0-1.5,0.3-1.5,0.8c0,0.6,0.7,0.7,2.3,1.1
				c1.2,0.3,2.4,0.7,2.4,1.7c0,1-1.1,1.8-3.2,1.8c-2,0-3.2-0.7-3.3-1.9H60z"/>
			<path class="st2" d="M49.3,62.2c0-0.8,0.4-1.4,1.2-1.9c0.6-0.4,1.4-0.7,2.5-0.9c0.8-0.2,1.5-0.2,2.2-0.2h1.2v0.8h-1.2
				c-1.2,0-2.2,0.2-3,0.6c-0.7,0.3-1.1,0.7-1.2,1.2h5.5v0.8h-5.5c0,0.5,0.3,0.9,1,1.3c0.7,0.5,1.7,0.7,2.9,0.7h1.6v0.8H55
				c-1.4,0-2.7-0.3-3.8-0.8C49.9,63.9,49.3,63.1,49.3,62.2z"/>
			<path class="st2" d="M67.1,59.2h1.4V62l3-2.9l1.5,0l-3.1,3l3.4,3l-1.7,0l-3.1-2.8v2.8h-1.4V59.2z"/>
			<g>
				<path class="st0" d="M80.4,59.2H85v1l-3.1,0v1.6h3v0.8h-3v2.6h-1.5V59.2z"/>
			</g>
			<path class="st0" d="M87.1,62.2c0-1.9,1.6-3.1,3.4-3.1c1.9,0,3.4,1.4,3.4,3.1c0,1.7-1.5,3.1-3.4,3.1
				C88.5,65.3,87.1,63.9,87.1,62.2L87.1,62.2z M88.4,62.2c0,1.1,0.9,2,2.2,2c1.3,0,2.1-1,2.1-2c0-1-0.8-2-2.1-2
				C89.3,60.2,88.4,61.1,88.4,62.2L88.4,62.2z"/>
			<path class="st0" d="M95.9,65.3v-3.8c0-0.8,0.3-1.4,0.9-1.8c0.6-0.4,1.5-0.6,2.8-0.6c1,0,1.8,0.2,2.4,0.5c0.7,0.3,1,0.8,1,1.3
				c0,0.3-0.1,0.5-0.3,0.8c-0.2,0.2-0.5,0.4-1,0.5c1,0.2,1.5,0.6,1.5,1.2v1.9h-1.5l0-1.7c-0.1-0.6-0.8-0.9-2-0.9H98v-0.8h1.3
				c0.5,0,1-0.1,1.4-0.2c0.5-0.2,0.7-0.5,0.7-0.8c0-0.3-0.2-0.6-0.6-0.8c-0.4-0.2-0.8-0.2-1.3-0.2c-0.7,0-1.3,0.1-1.6,0.4
				c-0.4,0.2-0.5,0.5-0.5,0.8v4.2H95.9z"/>
			<path class="st0" d="M135.1,62.3c0-1.9,1.6-3.2,3.5-3.2c2,0,3.5,1.4,3.5,3.1c0,1.7-1.5,3.1-3.5,3.1
				C136.6,65.4,135.1,63.9,135.1,62.3L135.1,62.3z M136.4,62.2c0,1.1,0.9,2,2.2,2c1.3,0,2.2-1,2.2-2c0-1.1-0.9-2.1-2.2-2.1
				C137.3,60.2,136.4,61.1,136.4,62.2L136.4,62.2z"/>
			<path class="st0" d="M110.7,59.2h1.3v6h-1.3V59.2z"/>
			<path class="st0" d="M120.7,63.3l0-4.1l1.8,0v6h-1.6l-4.2-4.3l0,4.3l-1.8,0v-6h1.7L120.7,63.3z"/>
			<path class="st0" d="M130.8,63.3l0-4.1l1.8,0v6h-1.6l-4.2-4.3l0,4.3l-1.8,0v-6h1.7L130.8,63.3z"/>
			<path class="st0" d="M162.2,60v-0.8h7.1V60h-2.8v5.3h-1.5V60H162.2z"/>
			<path class="st0" d="M152.6,65.3l0-4c0-0.6,0.4-1.1,1.1-1.5c0.7-0.4,1.6-0.6,2.7-0.6c1.2,0,2.1,0.2,2.8,0.6
				c0.7,0.4,1.1,1,1.1,1.7v3.8h-1.5v-2.7h-4v-0.8h4c0-1.3-0.8-1.9-2.3-1.9c-0.8,0-1.5,0.2-1.9,0.5c-0.3,0.3-0.5,0.5-0.5,0.9v4H152.6
				z"/>
			<g>
				<path class="st0" d="M143.2,59.2h1.5l2.4,4.9l2.4-4.9h1.6l-3.1,6.1h-1.7L143.2,59.2z"/>
			</g>
			<path class="st0" d="M174.7,62.3c0-1.9,1.6-3.2,3.5-3.2c2,0,3.5,1.4,3.5,3.1c0,1.7-1.5,3.1-3.5,3.1
				C176.2,65.4,174.7,63.9,174.7,62.3L174.7,62.3z M176,62.2c0,1.1,0.9,2,2.2,2c1.3,0,2.2-1,2.2-2c0-1.1-0.9-2.1-2.2-2.1
				C176.9,60.2,176,61.1,176,62.2L176,62.2z"/>
			<path class="st0" d="M171.3,59.2h1.3v6h-1.3V59.2z"/>
			<path class="st0" d="M190.1,63.3l0-4.1l1.8,0v6h-1.6l-4.2-4.3l0,4.3l-1.8,0v-6h1.7L190.1,63.3z"/>
			<g>
				<path class="st2" d="M40.4,59.1h2.8c1.1,0,2.5,0.1,3.4,1c0.6,0.6,0.9,1.3,0.9,2.1c0,1.8-1.3,3.1-4.3,3.1h-2.9V59.1z M42.1,64.4
					h1.2c1.9,0,2.7-0.9,2.7-2.2c0-0.6-0.2-1.2-0.6-1.6c-0.4-0.4-1.1-0.7-2.1-0.7h-1.2V64.4z"/>
			</g>
		</g>
		<g>
			<path class="st0" d="M3.7,63L1,59.2h1.7l1.9,2.9l1.9-2.9h1.7L5.5,63v2.1H3.7V63z"/>
		</g>
		<path class="st0" d="M9,62.2c0-1.8,1.5-3,3.3-3c1.9,0,3.3,1.3,3.3,3c0,1.6-1.4,3-3.3,3C10.4,65.2,9,63.8,9,62.2L9,62.2z
			 M10.3,62.2c0,1.1,0.9,1.9,2.1,1.9c1.2,0,2.1-0.9,2.1-1.9c0-1-0.8-2-2.1-2C11.1,60.2,10.3,61.2,10.3,62.2L10.3,62.2z"/>
		<path class="st0" d="M19.1,59.2l0,3.7c0,0.4,0,0.7,0.3,1c0.3,0.3,0.7,0.5,1.3,0.5c0.6,0,1.1-0.2,1.3-0.4c0.3-0.3,0.3-0.6,0.3-1
			l0-3.7h1.3l0,3.7c0,0.8-0.2,1.3-0.9,1.7c-0.5,0.3-1.2,0.5-2,0.5c-0.6,0-1.5-0.1-2-0.5c-0.8-0.5-0.9-1.1-0.9-1.7l0-3.7H19.1z"/>
		<path class="st0" d="M25.6,65.2v-3.7c0-0.7,0.3-1.3,0.9-1.7c0.6-0.4,1.5-0.6,2.7-0.6c0.9,0,1.7,0.1,2.3,0.4c0.7,0.3,1,0.7,1,1.2
			c0,0.3-0.1,0.5-0.3,0.8c-0.2,0.2-0.5,0.4-0.9,0.5c1,0.2,1.4,0.6,1.4,1.2v1.8h-1.4l0-1.7c-0.1-0.6-0.7-0.9-2-0.9h-1.6v-0.7H29
			c0.5,0,1-0.1,1.4-0.2c0.5-0.2,0.7-0.4,0.7-0.8c0-0.3-0.2-0.5-0.6-0.7c-0.4-0.2-0.8-0.2-1.3-0.2c-0.7,0-1.2,0.1-1.6,0.4
			c-0.3,0.2-0.5,0.5-0.5,0.8v4.1H25.6z"/>
	</g>
	<path class="st1" d="M90.8,61.9c7.1,5.1,19.9,14,30.5,19.4l5.2-6.2c-2.4,3.7-24.6-8-35.3-13.9L90.8,61.9z"/>
</g>
</svg>
